# xmcd
#
# Track frame offsets: 
#        150
#        17197
#        36370
#        49122
#        60542
#        75187
#        90802
#        108557
#        123415
#        136475
#        153337
#        167135
#        181222
#        200282
#        215007
#        228607
#        245242
#        258750
#
# Disc length: 3641 seconds
#
# Revision: 5
# Processed by: cddbd v1.5.2PL0 Copyright (c) Steve Scherf et al.
# Submitted via: ExactAudioCopy v0.99pb4
#
DISCID=f00e3712
DTITLE=Blubinos - The Mean Eighteen
DYEAR=1993
DGENRE=Blues
TTITLE0=Take A Walk
TTITLE1=Cruel Is Your Name
TTITLE2=Ninety-Nine Below
TTITLE3=Shake A Leg Meg
TTITLE4=Lesson Or Two
TTITLE5=I'm Wrong
TTITLE6=Sin No More Blues
TTITLE7=Female Dictionary
TTITLE8=Purple Heart
TTITLE9=In Over My Head
TTITLE10=Big Block Rock
TTITLE11=Broke Down Car
TTITLE12=Rock Treatment
TTITLE13=Brain Grenade
TTITLE14=Red Hot Wire
TTITLE15=Not A Day Goes By
TTITLE16=Bad Day Rough Week
TTITLE17=Lightning Strikes
EXTD=
EXTT0=
EXTT1=
EXTT2=
EXTT3=
EXTT4=
EXTT5=
EXTT6=
EXTT7=
EXTT8=
EXTT9=
EXTT10=
EXTT11=
EXTT12=
EXTT13=
EXTT14=
EXTT15=
EXTT16=
EXTT17=
PLAYORDER=
